<svg xmlns="http://www.w3.org/2000/svg" viewBox="0 0 24 24" fill="#99BBA2" class="size-6">
  <path fill-rule="evenodd" d="m11.54 22.351.07.04.028.016a.76.76 0 0 0 .723 0l.028-.015.071-.041a16.975 16.975 0 0 0 1.144-.742 19.58 19.58 0 0 0 2.683-2.282c1.944-1.99 3.963-4.98 3.963-8.827a8.25 8.25 0 0 0-16.5 0c0 3.846 2.02 6.837 3.963 8.827a19.58 19.58 0 0 0 2.682 2.282 16.975 16.975 0 0 0 1.145.742ZM12 13.5a3 3 0 1 0 0-6 3 3 0 0 0 0 6Z" clip-rule="evenodd" />
  <circle cx="12" cy="11" r="5" fill="#ffffff" />
    <svg x="8" y="8" width="8" height="6" viewBox="0 0 24 24" fill="#DADADA">
    <path d="M11.005 21a1.5 1.5 0 1 0-3 0h-5a1 1 0 0 1-1-1V4a1 1 0 0 1 1-1h5a1.5 1.5 0 0 0 3 0h10a1 1 0 0 1 1 1v5.5a2.5 2.5 0 0 0 0 5V20a1 1 0 0 1-1 1zm-1.5-10.5a1.5 1.5 0 1 0 0-3a1.5 1.5 0 0 0 0 3m0 6a1.5 1.5 0 1 0 0-3a1.5 1.5 0 0 0 0 3"/>
  </svg>
</svg>
